<?xml version="1.0" encoding="UTF-8"?>
<svg width="1200pt" height="1200pt" version="1.1" viewBox="0 0 1200 1200" xmlns="http://www.w3.org/2000/svg">
 <path d="m1200 424.78v-84.781c0-15.914-6.3203-31.176-17.574-42.426-11.25-11.254-26.512-17.574-42.426-17.574h-860v-140h40c0 7.1445 3.8125 13.746 10 17.32 6.1875 3.5742 13.812 3.5742 20 0 6.1875-3.5742 10-10.176 10-17.32h40c0 7.1445 3.8125 13.746 10 17.32 6.1875 3.5742 13.812 3.5742 20 0 6.1875-3.5742 10-10.176 10-17.32h40c0 7.1445 3.8125 13.746 10 17.32 6.1875 3.5742 13.812 3.5742 20 0 6.1875-3.5742 10-10.176 10-17.32h40c0 7.1445 3.8125 13.746 10 17.32 6.1875 3.5742 13.812 3.5742 20 0 6.1875-3.5742 10-10.176 10-17.32h540c15.832 0.13281 31.039-6.168 42.141-17.461 11.504-11.148 17.957-26.516 17.859-42.539 0-15.914-6.3203-31.176-17.574-42.426-11.25-11.254-26.512-17.574-42.426-17.574h-540c0-7.1445-3.8125-13.746-10-17.32-6.1875-3.5742-13.812-3.5742-20 0-6.1875 3.5742-10 10.176-10 17.32h-40c0-7.1445-3.8125-13.746-10-17.32-6.1875-3.5742-13.812-3.5742-20 0-6.1875 3.5742-10 10.176-10 17.32h-40c0-7.1445-3.8125-13.746-10-17.32-6.1875-3.5742-13.812-3.5742-20 0-6.1875 3.5742-10 10.176-10 17.32h-40c0-7.1445-3.8125-13.746-10-17.32-6.1875-3.5742-13.812-3.5742-20 0-6.1875 3.5742-10 10.176-10 17.32h-40c0-7.1445-3.8125-13.746-10-17.32-6.1875-3.5742-13.812-3.5742-20 0-6.1875 3.5742-10 10.176-10 17.32h-140c-28.207 0.003906-55.102 11.918-74.055 32.809-18.953 20.891-28.203 48.816-25.465 76.891 3.0508 25.074 15.234 48.141 34.223 64.797 18.984 16.66 43.441 25.738 68.695 25.504h16.602c10.609 0 20.781-4.2148 28.285-11.715 7.5-7.5039 11.715-17.676 11.715-28.285v-40h80v140h-180c-15.914 0-31.176 6.3203-42.426 17.574-11.254 11.25-17.574 26.512-17.574 42.426v800c0 15.914 6.3203 31.176 17.574 42.426 11.25 11.254 26.512 17.574 42.426 17.574h1080c15.914 0 31.176-6.3203 42.426-17.574 11.254-11.25 17.574-26.512 17.574-42.426zm-60-364.78c5.3047 0 10.391 2.1055 14.141 5.8594 3.7539 3.75 5.8594 8.8359 5.8594 14.141 0.011719 5.3984-2.2109 10.559-6.1406 14.262-3.6484 3.7148-8.6523 5.7852-13.859 5.7383h-540v-40zm-580 0v40h-40v-40zm-80 0v40h-40v-40zm-80 0v40h-40v-40zm-80 0v40h-40v-40zm-180 40h-40c-7.1445 0-13.746 3.8125-17.32 10-3.5742 6.1875-3.5742 13.812 0 20 3.5742 6.1875 10.176 10 17.32 10h20v40h-16.602c-15.328 0.30859-30.234-5.0391-41.871-15.023-11.641-9.9805-19.195-23.898-21.227-39.098-1.7344-16.867 3.8086-33.676 15.238-46.199 11.395-12.52 27.531-19.664 44.461-19.68h140v40zm-3.8203 1013.2c-9.9844-11.312-15.652-25.793-16-40.879 12.66 5.3008 26.277 7.9219 40 7.6992 13.719 0.23438 27.336-2.3672 40-7.6406 0.29297 23.531 8.6602 46.242 23.699 64.34 5.5586 7.0156 9.9492 14.887 13 23.301h-78.699c-3.4062-17.168-10.961-33.238-22-46.82zm-46.961-660c4.1016 8.2852 8.9922 16.152 14.602 23.5 10.707 11.855 16.496 27.348 16.18 43.32 0.1875 7.9297-1.2109 15.82-4.1211 23.199-18.453-15.266-41.73-23.488-65.68-23.199-3.6211 0-6.8203 0.55859-10.199 0.83984v-80c3.3789-0.50781 6.7852-0.78906 10.199-0.83984 14.168-0.38672 28.008 4.3008 39.02 13.219zm950.98 586.82c-15.945 0.27734-31.402-5.4961-43.258-16.16-4-2.8398-8.1992-5.8203-12.801-8.6992 10.785-16.406 16.32-35.711 15.859-55.34 0-2.7188-0.21875-5.1797-0.37891-7.6992 25.543 10.355 54.086 10.535 79.758 0.5 0.33203 2.3867 0.53906 4.7891 0.62109 7.1992 0.27734 15.953-5.5039 31.422-16.18 43.277-8.707 10.957-15.363 23.398-19.641 36.723-1.3398 0.058594-2.5391 0.19922-3.9805 0.19922zm-263.34-16.18c-8.6992-6.5859-18.16-12.098-28.18-16.422 7.7852-14.637 11.68-31.023 11.32-47.598 0.007812-6.7891-0.60547-13.566-1.8398-20.242 17.762 13.656 39.641 20.867 62.039 20.441 6.5938-0.003906 13.176-0.60156 19.66-1.7812 0 0.57812 0.14062 0.98047 0.14062 1.5781v0.003906c0.27734 15.953-5.5039 31.422-16.18 43.277-8.3711 10.539-14.879 22.43-19.242 35.16-10.168-2.7539-19.621-7.6719-27.719-14.418zm-220.42-0.21875c-13.133-10.652-28.59-18.051-45.121-21.602 5.9766-13.254 8.9414-27.664 8.6797-42.199 0.12891-12.066-1.9023-24.055-6-35.402 6.9336 3.25 13.477 7.2734 19.5 12 18.641 15.551 42.227 23.922 66.5 23.602 0.22656 15.883-5.543 31.266-16.16 43.078-6.6523 8.6172-12.215 18.023-16.559 28-3.4805-2.2383-6.9414-4.6562-10.84-7.4766zm-352.8 0.10156v-0.003906c-11.883 10.758-27.414 16.586-43.441 16.301-9.9844 0.3125-19.871-2.0273-28.66-6.7812 1.5-2.1797 2.9609-4.3203 4.6406-6.6211v0.003906c15.602-18.664 24.047-42.277 23.82-66.602h0.19922c24.363 0.28125 48.027-8.1523 66.723-23.781 2.2812-1.6602 4.4219-3.1016 6.6016-4.5781h-0.003907c4.5508 8.6719 6.7852 18.371 6.4805 28.16 0.27734 15.953-5.5039 31.422-16.18 43.277-2.8594 4-6 8.2188-8.8594 12.922-3.8398 2.5195-7.6797 5.0391-11.32 7.6992zm-163.64-462.94c3.3789-0.48047 6.7852-0.73438 10.199-0.76172 15.926-0.25391 31.352 5.5352 43.18 16.199l1.0586 0.73828 0.003906 0.003906c-9.8594 15.859-14.879 34.25-14.441 52.918 0.019531 4.8477 0.33984 9.6914 0.96094 14.5-9.9766-2.9844-20.348-4.4531-30.762-4.3594-3.6211 0-6.8203 0.55859-10.199 0.83984zm409.72-106.48c3.9961 7.8789 8.6797 15.387 14 22.438 10.738 11.832 16.559 27.309 16.281 43.281v0.60156c-20.758 1.8828-40.461 10.008-56.52 23.297-8.8047 7.5547-19.383 12.75-30.742 15.102 9.9531-25.598 9.75-54.027-0.55859-79.48 20.145-2.2031 39.195-10.27 54.801-23.199 1.0195-0.82031 1.8008-1.3789 2.7383-2.0391zm236-9.6797c4.4062 11.555 10.527 22.387 18.16 32.117 10.68 11.855 16.441 27.332 16.121 43.281v0.82031c-3.2812-0.28125-6.4609-0.71875-10-0.71875-24.383-0.28516-48.062 8.1641-66.762 23.82-2.4805 1.8203-4.7812 3.3984-7.1016 5h0.003906c2.625-9.4141 3.9258-19.148 3.8594-28.922 0.28906-15.266-3.0117-30.387-9.6406-44.141 13.219-4.3047 25.562-10.941 36.441-19.598 5.832-4.5781 12.16-8.4883 18.859-11.66zm238.64-4c4.3125 13.125 10.922 25.383 19.52 36.199 10.66 11.832 16.422 27.277 16.121 43.199 0 1.6016-0.28125 2.7188-0.35938 4.1992-9.5586-2.8125-19.477-4.2266-29.441-4.1992-17.902-0.40625-35.566 4.1914-51 13.281 0.51953-4.4102 0.78906-8.8438 0.80078-13.281 0.40234-17.844-4.168-35.445-13.199-50.84 7.0586-3.8086 13.816-8.1484 20.219-12.98 10.453-9.0391 23.508-14.52 37.281-15.66zm139.88 36.699c10.457 11.73 16.086 26.988 15.762 42.699 0.41797 11.227-2.5508 22.32-8.5195 31.84-9.3867 5.7617-20.273 8.6016-31.281 8.1602-15.766 0.30469-31.062-5.3672-42.82-15.879 1.7656-7.918 2.6445-16.008 2.6211-24.121 0.46875-20.359-5.5117-40.344-17.078-57.102 16.809 11.602 36.859 17.586 57.277 17.102 8.0742-0.03125 16.117-0.96484 23.98-2.7812zm-912.02 442.24c-4.293-9.4258-9.6602-18.324-16-26.52-10.688-11.836-16.484-27.293-16.219-43.238-0.023438-5.6719 0.69922-11.32 2.1406-16.801 12.105 4.8008 25.035 7.1836 38.059 7.0195 14.199 0.25391 28.281-2.5508 41.301-8.2188-0.98438 5.9492-1.4844 11.969-1.5 18-0.36719 16.832 3.6523 33.469 11.66 48.277-2.8789 2-5.6406 4-8.2383 5.7812-11.848 10.656-27.289 16.43-43.223 16.16-2.6641-0.011719-5.3281-0.16797-7.9805-0.46094zm601.28-343.3c14.656 11.938 32.238 19.738 50.922 22.602-3.0352 10.059-4.5273 20.516-4.4219 31.02-0.38672 17.297 3.8828 34.379 12.359 49.461-13.074-1.5273-25.402-6.918-35.398-15.48-15.93-13.168-35.43-21.281-56-23.301-0.59375-3.5312-0.91406-7.1016-0.96094-10.68-0.26953-15.934 5.5117-31.379 16.18-43.219 3.3203-4.5781 6.8984-9.6016 10.238-15.262 2.3438 1.582 4.6406 3.082 7.082 4.8594zm176.7 183.76c-20.211-0.46094-40.059 5.4375-56.738 16.859 4.4844-11.812 6.7031-24.363 6.5391-37 0.13672-11.906-1.8203-23.746-5.7812-34.98 4.5781-2.8789 8.7617-5.8594 12.66-8.6602 11.875-10.684 27.352-16.48 43.32-16.219 0.96094 0 1.7383 0 2.6406 0.10156 3.3555 5.7031 7.0195 11.219 10.98 16.52 10.672 11.844 16.453 27.297 16.18 43.238 0.1875 7.9258-1.2109 15.809-4.1211 23.18-8.4062-2.0469-17.027-3.0664-25.68-3.0391zm-593.26 23.762c-16.691-13.746-37.27-21.922-58.84-23.383 1.3086-6.7617 1.9766-13.633 2-20.52 0.46484-21.266-6.0547-42.094-18.562-59.301 2.875-0.35938 5.7656-0.54688 8.6602-0.55859 15.926-0.26172 31.359 5.5117 43.199 16.16 12.559 9.8984 27.082 17.012 42.602 20.859 2.8047 7.2812 4.1641 15.039 4 22.84 0.27734 15.926-5.5039 31.359-16.18 43.18l-2.6406 3.6992c-1.418-1-2.7578-1.8984-4.2383-2.9766zm61.059-65.242c17.957-3.1172 34.805-10.812 48.922-22.34 3.8594-2.8203 7.4609-5.3789 11.219-7.6602 2 2.8203 3.8594 5.5586 5.6992 8.1016 10.664 11.848 16.441 27.301 16.16 43.238 0.10547 7.1289-1.0508 14.219-3.4219 20.941-19.535 2.4922-37.965 10.465-53.156 23-11.664 10.496-26.812 16.27-42.5 16.199 12.805-17.348 19.512-38.441 19.078-60 0.035156-7.207-0.63672-14.402-2-21.48zm103.78-37.5c11.742 2.3164 22.691 7.6133 31.797 15.379 17.836 14.762 40.156 23.023 63.301 23.441 2.1602 6.4453 3.2227 13.203 3.1406 20 0.28125 15.926-5.5039 31.359-16.18 43.18-2.7188 3.7383-5.6016 7.7383-8.3984 12.141-6.7188-3.1797-13.082-7.0625-18.98-11.582-11.535-9.1758-24.758-16.004-38.922-20.098 1.6836-7.7617 2.5078-15.68 2.4609-23.621 0.46484-21.074-5.9375-41.727-18.238-58.84zm135.02 32.34c10.719-4.3281 20.805-10.074 30-17.078 7.9453-6.6445 17.219-11.512 27.199-14.281 3.2383 5.4219 6.6797 10.238 9.8789 14.66 10.641 11.844 16.402 27.281 16.121 43.199 0.085938 6.9492-1.0156 13.863-3.2617 20.441-2.2383-0.10156-4.3789-0.30078-6.7383-0.30078-24.383-0.28125-48.062 8.168-66.762 23.82-5.9922 4.7305-12.531 8.7266-19.477 11.898 11.031-16.504 16.699-36.012 16.238-55.859 0.039062-8.9336-1.0391-17.836-3.2188-26.5zm112.34-20.199c1.4414 1.0391 2.8203 2 4.3398 3.0586 18.695 15.625 42.355 24.055 66.719 23.781 5.4688-0.019531 10.93-0.42969 16.34-1.2188 2.3945 6.7656 3.5664 13.902 3.4609 21.078 0.27734 15.926-5.5039 31.359-16.18 43.18-3.9062 5.2461-7.5312 10.691-10.859 16.32-13.301-1.3828-25.863-6.7969-36-15.52-6.7266-5.0547-13.852-9.5625-21.301-13.48 2.9453-9.8945 4.4102-20.176 4.3398-30.5 0.33594-16.23-3.4023-32.289-10.879-46.699zm194.7-130c-15.66 18.672-24.117 42.332-23.84 66.699 0 3.7617 0.21875 7.2383 0.51953 10.621-20.969 1.8164-40.895 9.957-57.141 23.34-3.1992 2.3203-6.1992 4.3984-9.2617 6.3789h0.003906c-9.4805-11.266-14.504-25.617-14.121-40.34-0.48438-12.145 2.9609-24.125 9.8203-34.16 13.484-4.2031 26.094-10.832 37.199-19.559 11.828-10.656 27.262-16.426 43.18-16.141 4.9453-0.007812 9.875 0.52734 14.699 1.6016-0.37891 0.51953-0.67969 1-1.0781 1.5195zm-240 0c-15.66 18.672-24.117 42.332-23.84 66.699 0.019531 4.7227 0.32031 9.4375 0.89844 14.121-13.723 4.25-26.531 11.031-37.758 20-7.1172 5.832-15.18 10.406-23.84 13.52-1.0391-1.4805-2.1016-2.9609-3.1211-4.3594-10.684-11.855-16.469-27.324-16.18-43.281-0.35938-10.598 2.2891-21.082 7.6406-30.238 21.68-1.3984 42.371-9.6016 59.121-23.441 10.863-9.4844 24.594-15.051 39-15.801-0.66016 0.92188-1.2422 1.7812-1.9414 2.7422zm-135.34 108.52c-4-2.3594-7.8008-4.9805-12-8-18.633-15.574-42.219-23.973-66.5-23.68-3.1406 0-6 0.33984-9.0586 0.55859-0.58594-3.5352-0.90234-7.1133-0.94141-10.699-0.26953-15.934 5.5117-31.379 16.18-43.219 5.5586-7.2969 10.422-15.098 14.52-23.301 8.2422 3.1289 15.941 7.5273 22.82 13.039 9.7656 7.7422 20.688 13.902 32.359 18.262-4.0312 11.297-6.0195 23.223-5.8789 35.219-0.25391 14.379 2.6406 28.641 8.4805 41.781zm-126.4-20c-6.5078 3.6445-12.77 7.7148-18.742 12.18-11.641 10.387-26.719 16.086-42.32 16-1.6406-2.3594-3.2812-4.6406-4.8398-6.8203-10.668-11.824-16.457-27.254-16.199-43.18-0.37109-10.746 2.3516-21.371 7.8398-30.621 4.1016 0.48828 8.2305 0.73828 12.359 0.76172 24.398 0.28906 48.09-8.1758 66.781-23.859 4.4688-3.3398 9.1445-6.3945 14-9.1406-14.008 17.922-21.414 40.117-20.98 62.859-0.046875 7.3164 0.62109 14.617 2 21.801zm-119.44 2.5c-15.758-9.6719-33.973-14.598-52.461-14.18-9.7773-0.023438-19.512 1.3242-28.918 4-0.89062-4.6133-1.3164-9.3008-1.2812-14-0.26953-15.934 5.5117-31.379 16.18-43.219 6.3359-8.1758 11.703-17.055 16-26.461 15.145 0.24219 29.711 5.8711 41.082 15.879 4.8398 3.5 10 7.1992 16 10.621-6.3281 13.453-9.4961 28.176-9.2617 43.039-0.035156 8.1758 0.84766 16.324 2.6406 24.301zm-98 43.66c10.184 11.59 15.656 26.574 15.34 42 0.27344 9.0898-1.6133 18.117-5.5 26.34-11.102 4.3672-21.52 10.301-30.941 17.621-16.777 14.508-39.691 19.684-61.078 13.801 11.844-16.891 17.98-37.121 17.52-57.742 0-6.707-0.60156-13.398-1.8008-20 0.67969 0 1.3008 0.10156 2 0.10156 23.418 0.39453 46.23-7.4414 64.461-22.141zm24.102 184.28c-6.1406-9.6406-9.1953-20.922-8.7617-32.34-0.27344-15.926 5.5078-31.359 16.18-43.18 1.2617-1.7383 2.5781-3.5586 4-5.4219 3.3047-0.64453 6.6562-1.0391 10.02-1.1797 15.93-0.27734 31.375 5.4883 43.223 16.141 3.0586 2.1992 6.4219 4.5391 9.8789 6.8594-2.2344 8.75-3.3398 17.75-3.3008 26.781-0.41016 18.156 4.3242 36.059 13.66 51.641-18.043-14.262-40.469-21.828-63.461-21.422-7.1953 0.003906-14.379 0.70703-21.438 2.1016zm127.42 10.922-0.003906-0.003907c-10.68-11.848-16.465-27.309-16.18-43.258 0.023438-3.8711 0.36328-7.7305 1.0195-11.543 6.332 1.1445 12.75 1.7344 19.18 1.7617 23.434 0.37891 46.254-7.4883 64.48-22.219-3.2188 10.355-4.7969 21.152-4.6797 32-0.21094 13.488 2.3203 26.879 7.4414 39.359-8.4648 4.1094-16.504 9.0391-24 14.719-8.9922 7.6523-19.809 12.848-31.402 15.082-4.3086-9.2031-9.625-17.898-15.859-25.922zm113.82-13.043h-2.3594c-5.3438-9.1523-7.9922-19.629-7.6406-30.219-0.27344-15.926 5.5078-31.359 16.18-43.18 1.3203-1.8398 2.6992-3.7188 4-5.6992v-0.003906c12.574 2.1602 24.324 7.6914 34 16 8.3789 6.2617 17.461 11.516 27.059 15.66-0.89453 5.6797-1.3555 11.414-1.3789 17.16-0.27734 24.383 8.1719 48.062 23.82 66.762l1.3398 2c-10.562-2.7461-20.375-7.8242-28.719-14.859-18.59-15.508-42.094-23.883-66.301-23.621zm126.18 13.02c-10.676-11.844-16.457-27.297-16.18-43.238 0.058594-3.2773 0.34766-6.5469 0.85938-9.7812 24.113 0.09375 47.488-8.3281 66-23.781 7.25-5.8398 15.469-10.367 24.281-13.379-7.6133 14.457-11.445 30.605-11.141 46.941-0.12891 11.215 1.5742 22.371 5.0391 33.039-15.266 3.9375-29.512 11.098-41.777 21-4.4609 3.4258-9.1367 6.5586-14 9.3789-3.8438-7.0469-8.2148-13.793-13.082-20.18zm112.46-11.121c-6.0508-9.5898-9.0625-20.785-8.6406-32.117-0.27344-15.926 5.5078-31.359 16.18-43.18l0.67969-0.94141c5.8438 3.0156 11.406 6.5508 16.621 10.559 13.648 11.09 29.816 18.645 47.078 22-0.33984 3.6406-0.55859 7.4609-0.55859 11.539v0.003907c-0.28516 24.383 8.1641 48.062 23.82 66.758 0.80078 1.1016 1.4414 2 2.1992 3.1406-1.8789 0.14062-3.6797 0.32031-5.8203 0.32031-15.934 0.25781-31.371-5.5234-43.219-16.18-14.078-11.133-30.68-18.617-48.34-21.801zm127.54 11.121c-10.676-11.844-16.457-27.297-16.18-43.238 0.019531-3.957 0.36719-7.9023 1.0391-11.801 16.848-3.5156 32.613-10.988 46-21.801 11.828-10.652 27.246-16.434 43.16-16.18 0.82031 0 1.4609 0.17969 2.2617 0.19922-8.5391 15.105-12.844 32.234-12.461 49.582-0.089844 10.32 1.3555 20.598 4.2812 30.5-22.219 1.0664-43.492 9.2969-60.641 23.457-2.5-3.7383-5.0391-7.3789-7.4609-10.719zm117.66-3.3008c-9.3203-11.207-14.238-25.426-13.84-40-0.47656-12.68 3.3047-25.156 10.738-35.438l2.7383 2h0.003907c18.699 15.609 42.363 24.023 66.719 23.719h0.28125c-0.26172 3.1406-0.48047 6.3398-0.48047 9.8008-0.33203 24.148 7.9648 47.625 23.398 66.199-7.3867 2.8711-15.273 4.2344-23.199 4-15.98 0.26562-31.469-5.5391-43.34-16.238-7.25-5.3438-14.953-10.043-23.02-14.043zm106.16-149.86c0.27734 15.926-5.5039 31.359-16.18 43.18-3.3984 4.6992-7.0586 9.8398-10.48 15.66-4.332 0.83984-8.7305 1.2734-13.141 1.3008-15.93 0.29688-31.375-5.4648-43.219-16.121-1.5195-1.1016-3.2812-2.2617-4.8984-3.4219l-0.003906 0.003907c5.4922-12.82 8.2188-26.656 8-40.602 0.082031-9.9805-1.2656-19.922-4-29.52 13.75 6.625 28.863 9.9336 44.121 9.6602 11.809 0.09375 23.539-1.8867 34.66-5.8594 3.6406 8.0742 5.3984 16.867 5.1406 25.719zm-27.82-60.859c-3.9648 0.67578-7.9766 1.0117-12 1-15.926 0.27344-31.363-5.4883-43.219-16.121-10.645-8.3164-22.621-14.77-35.422-19.078-1.0625-4.9102-1.5781-9.918-1.5391-14.941-0.26953-15.934 5.5117-31.379 16.18-43.219 1.3203-1.8203 2.6797-3.6797 4-5.6211 17.359 12.77 38.453 19.441 60 18.98 1.4609 0 2.5781-0.28125 4-0.32031-2.8672 9.8008-4.2773 19.969-4.1797 30.18-0.38672 17.172 3.8164 34.137 12.18 49.141zm-226.18-199.24c9.0117 11.301 13.953 25.305 14.039 39.758 0.082032 14.453-4.6992 28.516-13.578 39.922-2 0.17969-4 0.55859-6.2188 0.55859h-0.003907c-15.93 0.25781-31.371-5.5234-43.219-16.18-5.6445-4.1758-11.527-8.0156-17.621-11.5 0.41016-4.0938 0.60937-8.207 0.60156-12.32 0.28516-24.371-8.1641-48.039-23.82-66.719-2.6406-3.6211-4.9805-6.9805-7.1211-10.379v-0.003906c8.8516 3.0234 17.109 7.5664 24.402 13.422 18.715 15.59 42.383 23.988 66.738 23.68 2.1016 0 3.8008-0.16016 5.8008-0.23828zm-240.56-0.80078c9.7734 11.402 14.961 26.027 14.559 41.039 0.41797 14.07-4.2148 27.828-13.059 38.781-11.148-2.3711-21.531-7.4844-30.203-14.883-11.004-8.8164-23.52-15.559-36.938-19.898 0-1.3984 0.19922-2.6602 0.19922-4.1211 0.27344-24.367-8.1758-48.031-23.82-66.719-3.0859-4.1758-5.9453-8.5156-8.5586-13 0.83984 0 1.5195-0.17969 2.3789-0.17969 15.941-0.26953 31.391 5.5117 43.238 16.18 14.93 12.305 32.992 20.199 52.16 22.801zm-241.58-2.2383-0.003906-0.003906c10.684 11.852 16.457 27.328 16.141 43.281 0.44922 11.691-2.7539 23.23-9.1602 33.02-4.9023-2.7773-9.6172-5.8711-14.121-9.2578-16.121-13.312-35.895-21.426-56.719-23.281v-0.48047c0.27344-24.371-8.1758-48.035-23.82-66.719-2.5195-3.4609-4.8203-6.6992-6.8789-10 6.7266-2.2812 13.797-3.3906 20.898-3.2812 15.988-0.27344 31.484 5.5312 43.359 16.238 8.4102 6.457 17.547 11.906 27.223 16.242zm-120 0-0.003906-0.003906c10.684 11.852 16.457 27.328 16.141 43.281 0 1.6992-0.30078 2.9219-0.39844 4.4805-13.105 4.3203-25.352 10.906-36.18 19.461-11.863 10.617-27.305 16.355-43.223 16.059-2.5938-0.019531-5.1836-0.17188-7.7578-0.46094 10.176-25.711 10.09-54.348-0.24219-80 2.6211 0.17969 5.1797 0.39844 8 0.39844v0.003906c19.523 0.45312 38.723-5.0156 55.082-15.68 2.8398 4.5586 5.7773 8.6367 8.5391 12.457zm-63.664 123.28c16.773 0.36328 33.352-3.625 48.121-11.578-5.7305 13.051-8.5703 27.188-8.3203 41.438-0.12891 11.164 1.5586 22.277 5 32.902-0.5 0.35938-1.0586 0.67969-1.5586 1.0391-11.836 10.688-27.293 16.48-43.242 16.199-7.4375 0.125-14.836-1.1602-21.801-3.7812l-2.2188-3.1211v0.003906c-10.676-11.844-16.457-27.301-16.18-43.242-0.47656-12.16 2.9727-24.152 9.8398-34.199 9.8516 2.9414 20.082 4.4023 30.359 4.3398zm-120.2 80.762c3.3789-0.48047 6.7852-0.73438 10.199-0.76172 15.922-0.27344 31.367 5.4336 43.281 16 5.6719 4.1328 11.582 7.9336 17.699 11.379 6.1914 9.6719 9.2695 21.008 8.8203 32.48 0.44531 13.566-3.8789 26.855-12.219 37.562-16.848-11.793-37.023-17.895-57.582-17.422-3.6211 0-6.8203 0.55859-10.199 0.83984zm0 120c3.3789-0.48047 6.7852-0.73438 10.199-0.76172 13.242-0.46484 26.234 3.6602 36.781 11.68-9.082 23.977-9.3086 50.41-0.64062 74.539-11.566-4.2617-23.812-6.3711-36.141-6.2188-3.6211 0-6.8203 0.55859-10.199 0.83984zm232.48 119.44c15.113 0.30859 29.621 5.9805 40.941 16 13.488 10.898 29.414 18.379 46.418 21.801 0 0.66016 0.16016 1.1211 0.16016 1.8203 0.27734 15.953-5.5039 31.422-16.18 43.281-4.1719 5.5625-8.0039 11.375-11.48 17.398-17.25-13.227-38.383-20.391-60.121-20.379 10.312-25.652 10.402-54.281 0.26172-80zm103.7 106.4v0.003906c15.656-18.715 24.105-42.406 23.82-66.801v-1.5586-0.003907c17.23-3.375 33.371-10.93 47-22 6.6016-5.2969 13.973-9.5508 21.859-12.617 7.6953 10.453 11.621 23.207 11.141 36.18 0.27734 15.953-5.5039 31.422-16.18 43.277l-0.35937 0.5c-14.594 4.0156-28.234 10.91-40.121 20.281-11.824 10.641-27.238 16.406-43.141 16.141-4.082 0.003906-8.1602-0.35938-12.18-1.0781 2.3789-4.0625 5.0391-8.0234 8.1602-12.32zm240 0v0.003906c15.656-18.715 24.105-42.406 23.82-66.801 0-2.6406-0.21875-5.0391-0.35938-7.5 9.668-4.2852 18.789-9.7031 27.18-16.141 11.008-9.668 25-15.266 39.641-15.859 9.1445 11.094 13.953 25.129 13.539 39.5 0.39062 14.746-4.6484 29.121-14.16 40.398-22.918 0.67188-44.949 8.9883-62.602 23.621-10 8.5898-22.344 13.988-35.438 15.5 2.5703-4.3828 5.3672-8.6289 8.3789-12.719zm240 0v0.003906c15.648-18.719 24.098-42.406 23.82-66.801-0.015625-5.9219-0.50391-11.836-1.4609-17.68 3.0195-2 6-4 8.5781-6h0.003906c11.805-10.629 27.199-16.387 43.078-16.121 6.0078-0.023438 11.984 0.79688 17.762 2.4414 8.2344 10.676 12.488 23.883 12.039 37.359 0.36328 15.07-4.8711 29.746-14.699 41.18-5.0078-0.66406-10.051-0.99219-15.102-0.98047-24.398-0.29297-48.098 8.1484-66.82 23.801-3.5195 2.5586-6.8008 4.8594-10 6.9609 0.88281-1.3828 1.7617-2.7617 2.8203-4.1602zm240-133.58c-14.738-16.922-19.836-40.188-13.52-61.719 8.4844-4.1914 16.523-9.2227 24-15.02 11.859-10.727 27.352-16.547 43.34-16.281 3.3477 0.027344 6.6875 0.28125 10 0.76172v80c-3.3203-0.26172-6.4609-0.82031-10-0.82031-18.637-0.44141-36.996 4.5781-52.82 14.438zm53.82-133.02c-11.152-0.12891-22.25 1.5625-32.859 5 1.9375-8.2383 2.8984-16.676 2.8594-25.141 0.32031-15.859-3.25-31.559-10.398-45.719 11.297-9.4727 25.66-14.5 40.398-14.141 3.3477 0.027344 6.6875 0.28125 10 0.76172v80c-3.3203-0.20312-6.4609-0.76172-10-0.76172zm0-120c-22.441-0.40625-44.355 6.8164-62.16 20.48-5.5-9.2422-8.2227-19.871-7.8398-30.621-0.26953-15.934 5.5117-31.379 16.18-43.219 1.4219-2 2.8984-4 4.3789-6.1211 2-1.4414 4.1211-2.8594 6.1406-4.3203 11.871-10.672 27.34-16.461 43.301-16.199 3.3477 0.027344 6.6875 0.28125 10 0.76172v80c-3.3203-0.20312-6.4609-0.76172-10-0.76172zm10-119.18c-3.3203-0.26172-6.4609-0.82031-10-0.82031-10.227-0.089844-20.41 1.332-30.219 4.2188 0-1.4609 0.21875-2.8008 0.21875-4.3203 0.46484-21.43-6.1562-42.418-18.84-59.699 1.8789-1.3398 4-2.6992 5.7188-4 11.793-10.684 27.211-16.477 43.121-16.199 3.3477 0.027344 6.6875 0.28125 10 0.76172zm-96.18-177.6c-15.672 18.695-24.121 42.391-23.82 66.781-0.10547 10.047 1.2422 20.059 4 29.719-1.3398 0-2.4805 0.32031-3.8789 0.32031-15.926 0.26172-31.359-5.5117-43.199-16.16-10.902-8.6719-23.262-15.332-36.5-19.66 1.1094-13.828 6.6016-26.945 15.68-37.438 11.074-13.555 18.656-29.617 22.078-46.781h78.699c-3.082 8.3867-7.4922 16.227-13.059 23.219zm-120 0c-13.438 16.266-21.586 36.242-23.359 57.262-20.879 1.793-40.723 9.8828-56.902 23.199-5.8008 4.4805-12.094 8.2852-18.758 11.34-3.4141-7.8867-5.0508-16.43-4.8008-25.02-0.27344-15.938 5.5078-31.383 16.18-43.219 11.047-13.562 18.602-29.625 22-46.781h78.699c-3.082 8.3867-7.4922 16.227-13.059 23.219zm-120 0c-15.672 18.695-24.121 42.391-23.82 66.781-0.058594 9.4531 1.1602 18.871 3.6211 28-9.7422-2.8203-18.812-7.582-26.66-14-15.973-13.191-35.523-21.312-56.141-23.32 1.8359-12.48 7.1602-24.191 15.359-33.781 11.066-13.594 18.621-29.699 22-46.898h78.699c-3.082 8.3867-7.4922 16.227-13.059 23.219zm-120 0c-14.219 17.18-22.473 38.508-23.52 60.781-13.461 4.2969-26.016 11.027-37.039 19.859-10.051 8.8594-22.586 14.402-35.902 15.879-5.1641-9.0391-7.7109-19.336-7.3594-29.738-0.27344-15.938 5.5078-31.383 16.18-43.219 11.047-13.562 18.602-29.625 22-46.781h78.699c-3.082 8.3867-7.4922 16.227-13.059 23.219zm-120 0c-15.656 18.707-24.102 42.391-23.82 66.781 0.015625 5.7266 0.46875 11.441 1.3594 17.102-1.6211-1.1406-3.1797-2.1992-4.9219-3.4609h0.003906c-18.625-15.547-42.184-23.93-66.441-23.641-3.2617 0-6.1211 0.5-9.1992 0.73828 1.8008-12.559 7.1367-24.352 15.379-34 11.035-13.551 18.586-29.598 22-46.738h78.68c-3.0664 8.3906-7.4727 16.23-13.039 23.219zm-120 0c-15.656 18.707-24.102 42.391-23.82 66.781 0 1 0.12109 1.8594 0.14062 2.8203-5.7852 3.375-11.371 7.0742-16.742 11.078-11.848 10.633-27.281 16.387-43.199 16.102-4.4805 0-8.9531-0.41406-13.359-1.2383-4.7891-8.8125-7.1484-18.738-6.8398-28.762-0.27344-15.938 5.5078-31.383 16.18-43.219 11.039-13.566 18.594-29.629 22-46.781h78.68c-3.0664 8.3906-7.4727 16.23-13.039 23.219zm-120 0c-15.656 18.707-24.102 42.391-23.82 66.781 0 0.94141 0.12109 1.7617 0.14062 2.6797-15.191-8.6719-32.453-13.055-49.941-12.68-10.059-0.035156-20.066 1.418-29.699 4.3203 1.0664-13.883 6.5625-27.055 15.68-37.582 11.035-13.551 18.586-29.598 22-46.738h78.68c-3.0664 8.3906-7.4727 16.23-13.039 23.219zm-120 0c-15.656 18.707-24.102 42.391-23.82 66.781 0.015625 5.1914 0.39062 10.379 1.1211 15.52-11.395 9.6992-25.965 14.855-40.922 14.48-13.656 0.41406-27.027-3.957-37.801-12.359-1.6211-5.7383-2.4297-11.676-2.3984-17.641-0.27344-15.938 5.5078-31.383 16.18-43.219 11.039-13.566 18.594-29.629 22-46.781h78.68c-3.0664 8.3906-7.4727 16.23-13.039 23.219zm-183.82 577.54c3.3789-0.48047 6.7852-0.73438 10.199-0.76172 15.934-0.27734 31.383 5.4922 43.242 16.141 8.0156 6.1758 16.688 11.445 25.859 15.719 0.39453 2.6523 0.625 5.3242 0.69922 8 0.27734 15.957-5.5039 31.422-16.18 43.281-1.8984 2.6211-3.8789 5.4414-5.8594 8.3594-14.668-7.8711-31.117-11.832-47.762-11.5-3.6211 0-6.8203 0.55859-10.199 0.83984zm216.18 192.42v-0.003906c-10.652-11.832-16.434-27.258-16.18-43.18-0.25391-8.5273 1.3359-17.004 4.6602-24.859 8.0234-3.5977 16.75-5.3555 25.539-5.1406 15.93-0.28516 31.379 5.4805 43.223 16.141 2.1797 1.5781 4.5781 3.2617 7.0195 4.9414-0.21875 2.8594-0.44141 5.6992-0.44141 8.8203v-0.003906c-0.28125 24.395 8.168 48.09 23.82 66.801 5.5781 7.0117 9.9883 14.883 13.059 23.301h-78.699c-3.4062-17.168-10.961-33.238-22-46.82zm120 0v-0.003906c-8.4609-9.8984-13.836-22.059-15.461-34.98 6.4297 1.168 12.949 1.7695 19.48 1.8008 21.66 0.46484 42.852-6.3008 60.242-19.219-0.21875 2.9609-0.44141 6-0.44141 9.1211v-0.003906c-0.28125 24.395 8.168 48.09 23.82 66.801 5.5781 7.0117 9.9883 14.883 13.059 23.301h-78.699c-3.4062-17.168-10.961-33.238-22-46.82zm120 0v-0.003906c-10.652-11.832-16.434-27.258-16.18-43.18-0.34375-10.383 2.1836-20.66 7.3008-29.699 0.96094 0 1.6992-0.19922 2.6992-0.19922 16.156-0.21875 31.797 5.6992 43.762 16.559 8.1484 6.2539 16.992 11.543 26.359 15.762 0.28125 23.543 8.6484 46.273 23.699 64.379 5.5703 6.9805 9.9805 14.816 13.059 23.199h-78.699c-3.4062-17.168-10.961-33.238-22-46.82zm120 0v-0.003906c-8.0547-9.4414-13.348-20.922-15.301-33.18 24.074 0.070312 47.402-8.3516 65.883-23.781 4.9688-3.75 10.23-7.0938 15.738-10-1.6953 7.8125-2.5352 15.789-2.5 23.781-0.27734 24.391 8.1641 48.078 23.801 66.801 5.582 6.9766 10 14.809 13.078 23.199h-78.68c-3.4219-17.164-10.98-33.238-22.02-46.82zm120 0v-0.003906c-10.652-11.832-16.434-27.258-16.18-43.18-0.28516-9.7266 1.9258-19.367 6.4219-28 9.8906 2.8711 19.07 7.7773 26.957 14.398 13.641 11.07 29.785 18.625 47.02 22 1.543 21.457 9.7227 41.902 23.402 58.5 5.5742 6.9492 9.9922 14.746 13.078 23.102h-78.68c-3.4219-17.164-10.98-33.238-22.02-46.82zm120 0v-0.003906c-8.5-9.918-13.879-22.133-15.461-35.102 16.934-3.5312 32.77-11.074 46.18-22 10.41-8.9805 23.383-14.453 37.082-15.637-2.7305 9.6094-4.0742 19.566-3.9805 29.559-0.27734 24.391 8.1641 48.078 23.801 66.801 5.582 6.9766 10 14.809 13.078 23.199h-78.68c-3.4219-17.164-10.98-33.238-22.02-46.82zm120 0v-0.003906c-10.652-11.832-16.434-27.258-16.18-43.18-0.097656-7.0156 1.0273-13.992 3.3203-20.621 3.3398 2.1211 6.6211 4.3984 10.102 6.9414 18.727 15.594 42.41 23.988 66.777 23.68h0.30078c1.875 20.82 9.9961 40.594 23.301 56.719 5.5898 7.0039 10.008 14.863 13.078 23.281h-78.68c-3.4219-17.164-10.98-33.238-22.02-46.82zm139.7-183.3v-0.003906c10-6.9062 21.977-10.375 34.121-9.8789 3.3477 0.027344 6.6875 0.28125 10 0.76172v80c-3.3203-0.26172-6.4609-0.82031-10-0.82031-14.457-0.26562-28.797 2.6562-42 8.5586 8.2031-14.898 12.34-31.695 12-48.699 0.078125-10.121-1.3086-20.199-4.1211-29.922zm44.121-589.88v60.82c-3.3203-0.26172-6.4609-0.82031-10-0.82031-24.402-0.24219-48.082 8.2734-66.738 24l-1.6406 1.1602c-1.1094-4.9766-1.6523-10.062-1.6211-15.16-0.27344-15.938 5.5078-31.383 16.18-43.219 11.047-13.562 18.602-29.625 22-46.781h21.82c5.3047 0 10.391 2.1055 14.141 5.8594 3.7539 3.75 5.8594 8.8359 5.8594 14.141zm-1100-20h56.859c-3.0664 8.3906-7.4727 16.23-13.039 23.219-14.258 17.234-22.52 38.641-23.539 60.98-9.7656-2.8711-19.902-4.2852-30.082-4.1992-3.6211 0-6.8203 0.55859-10.199 0.83984v-60.84c0-5.3047 2.1055-10.391 5.8594-14.141 3.75-3.7539 8.8359-5.8594 14.141-5.8594zm-20 820v-99.238c3.3789-0.48047 6.7852-0.73438 10.199-0.76172 11.219-0.39844 22.301 2.5664 31.82 8.5195-1.3672 7.0781-2.043 14.273-2.0195 21.48-0.28125 24.395 8.168 48.086 23.82 66.801 5.5703 6.9805 9.9805 14.816 13.059 23.199h-56.879c-5.3047 0-10.391-2.1055-14.141-5.8594-3.7539-3.75-5.8594-8.8359-5.8594-14.141zm1100 20h-21.801c-3.4141-17.164-10.969-33.234-22-46.82-10.043-11.363-15.715-25.934-16-41.102 9.4688-4.2891 18.406-9.6562 26.641-16 11.84-10.617 27.258-16.363 43.16-16.078 3.3477 0.027344 6.6875 0.28125 10 0.76172v99.238c0 5.3047-2.1055 10.391-5.8594 14.141-3.75 3.7539-8.8359 5.8594-14.141 5.8594z" fill="#fff"/>
</svg>
