<?xml version="1.0" encoding="UTF-8"?>
<svg width="1200pt" height="1200pt" version="1.1" viewBox="0 0 1200 1200" xmlns="http://www.w3.org/2000/svg">
 <path d="m984 458.64v-165.12c0-19.32-15.602-35.039-34.922-35.039h-72.359c-19.32 0-35.039 15.719-35.039 35.039v41.641l-203.4-176.64c-21.961-19.078-54.602-19.078-76.68 0l-461.76 400.92c-18.359 15.961-24.961 41.762-16.441 64.68 8.6406 22.801 30.359 38.039 54.719 38.039h88.559v360c0 18.602 15.121 33.719 33.719 33.719h198.96l0.003906-261.84c0-36.961 30-66.961 66.961-66.961h147.36c36.961 0 66.961 30 66.961 66.961v261.72h198.84c18.602 0 33.719-15 33.719-33.719v-360h88.562c32.281 0 58.441-26.16 58.441-58.559 0-18.48-8.5195-34.922-21.961-45.719z" fill="#fff"/>
</svg>
