<?xml version="1.0" encoding="UTF-8"?>
<svg width="1200pt" height="1200pt" version="1.1" viewBox="0 0 1200 1200" xmlns="http://www.w3.org/2000/svg">
 <path d="m1142.4 471.68c33.387 6.2617 57.578 35.414 57.578 69.379v117.89c0 19.492-15.801 35.293-35.293 35.293-19.492 0-35.297-15.801-35.297-35.293v-117.89l-90.512-16.969c-13.586-2.5469-24.434-12.793-27.754-26.211-10.172-41.094-26.457-80.258-48.23-116.34-7.1445-11.836-6.7148-26.754 1.0898-38.164l52.027-76.039-83.359-83.359-76.039 52.027c-11.41 7.8047-26.328 8.2344-38.164 1.0898-36.086-21.773-75.25-38.059-116.34-48.23-13.418-3.3203-23.664-14.168-26.211-27.754l-16.969-90.512h-117.89l-16.969 90.512c-2.5469 13.586-12.793 24.434-26.211 27.754-41.094 10.172-80.258 26.457-116.34 48.23-11.836 7.1445-26.754 6.7148-38.164-1.0898l-76.039-52.027-83.359 83.359 52.027 76.039c7.8047 11.41 8.2344 26.328 1.0898 38.164-21.773 36.086-38.059 75.25-48.23 116.34-3.3203 13.418-14.168 23.664-27.754 26.211l-90.512 16.969v117.89l90.512 16.969c13.586 2.5469 24.434 12.793 27.754 26.211 10.172 41.094 26.457 80.258 48.23 116.34 7.1445 11.836 6.7148 26.754-1.0898 38.164l-52.027 76.039 83.359 83.359 76.039-52.027c11.41-7.8047 26.328-8.2344 38.164-1.0898 36.086 21.773 75.25 38.059 116.34 48.23 13.418 3.3203 23.664 14.168 26.211 27.754l16.969 90.512h117.89l16.969-90.512c3.5938-19.156 22.035-31.777 41.195-28.184 19.156 3.5898 31.777 22.035 28.184 41.195l-16.969 90.512c-6.2617 33.387-35.414 57.578-69.379 57.578h-117.89c-33.965 0-63.117-24.191-69.379-57.578l-12.895-68.789c-32.59-9.7031-64.004-22.746-93.801-38.887l-57.793 39.543c-28.031 19.18-65.754 15.672-89.773-8.3438l-83.359-83.359c-24.016-24.02-27.523-61.742-8.3438-89.773l39.543-57.793c-16.141-29.797-29.184-61.211-38.887-93.801l-68.789-12.895c-33.387-6.2617-57.578-35.414-57.578-69.379v-117.89c0-33.965 24.191-63.117 57.578-69.379l68.789-12.895c9.7031-32.59 22.746-64.004 38.887-93.801l-39.543-57.793c-19.18-28.031-15.672-65.754 8.3438-89.773l83.359-83.359c24.02-24.016 61.742-27.523 89.773-8.3438l57.793 39.543c29.797-16.141 61.211-29.184 93.801-38.887l12.895-68.789c6.2617-33.387 35.414-57.578 69.379-57.578h117.89c33.965 0 63.117 24.191 69.379 57.578l12.895 68.789c32.59 9.7031 64.004 22.746 93.801 38.887l57.793-39.543c28.031-19.18 65.754-15.672 89.773 8.3438l83.359 83.359c24.016 24.02 27.523 61.742 8.3438 89.773l-39.543 57.793c16.141 29.797 29.184 61.211 38.887 93.801zm57.578 675.45c0 19.492-15.801 35.293-35.293 35.293-19.492 0-35.297-15.801-35.297-35.293 0-41.441-27.473-70.66-61.762-70.66h-114.65c-42.324 0-70.648 28.312-70.648 70.59 0 19.492-15.801 35.293-35.293 35.293-19.492 0-35.293-15.801-35.293-35.293 0-81.27 59.93-141.18 141.23-141.18h114.65c74.281 0 132.35 61.754 132.35 141.25zm-194.12-194.19c-68.223 0-123.53-55.305-123.53-123.53 0-68.223 55.309-123.53 123.53-123.53 68.223 0 123.53 55.305 123.53 123.53 0 68.227-55.305 123.53-123.53 123.53zm0-70.59c29.238 0 52.941-23.703 52.941-52.941 0-29.238-23.703-52.941-52.941-52.941-29.238 0-52.941 23.703-52.941 52.941 0 29.238 23.703 52.941 52.941 52.941zm-405.88-35.293c-136.45 0-247.06-110.61-247.06-247.06s110.61-247.06 247.06-247.06 247.06 110.61 247.06 247.06-110.61 247.06-247.06 247.06zm0-70.59c97.461 0 176.47-79.008 176.47-176.47s-79.008-176.47-176.47-176.47-176.47 79.008-176.47 176.47 79.008 176.47 176.47 176.47z" fill="#fff"/>
</svg>
